<?xml version="1.0" standalone="no"?>
<!DOCTYPE svg PUBLIC "-//W3C//DTD SVG 20010904//EN"
 "http://www.w3.org/TR/2001/REC-SVG-20010904/DTD/svg10.dtd">
<svg version="1.0" xmlns="http://www.w3.org/2000/svg"
 width="740.000000pt" height="221.000000pt" viewBox="0 0 740.000000 221.000000"
 preserveAspectRatio="xMidYMid meet">

<g transform="translate(0.000000,221.000000) scale(0.100000,-0.100000)"
fill="#000000" stroke="none">
<path d="M2480 2192 c-35 -17 -72 -71 -85 -124 l-7 -28 70 0 c70 0 71 0 74 27
4 39 32 40 66 2 22 -25 36 -32 69 -33 22 0 52 6 67 13 30 16 66 84 66 124 0
26 -2 27 -54 27 -45 0 -56 -3 -61 -19 -11 -36 -32 -45 -52 -21 -42 50 -95 61
-153 32z"/>
<path d="M100 1998 c-31 -16 -51 -36 -67 -67 -22 -42 -23 -54 -23 -275 0 -268
4 -285 80 -323 34 -18 61 -23 120 -23 97 0 164 30 206 93 25 37 29 51 29 117
l0 75 -80 0 -80 0 -3 -47 c-5 -82 -66 -99 -91 -27 -14 40 -14 284 -1 310 6 11
21 19 35 19 29 0 45 -26 45 -73 0 -49 17 -58 101 -55 71 3 73 4 81 33 28 97
-47 214 -161 253 -56 20 -141 15 -191 -10z"/>
<path d="M1243 1999 l-43 -10 0 -329 c0 -198 4 -331 10 -335 5 -3 69 -6 143
-7 123 -2 137 0 183 23 67 33 94 76 94 149 0 49 -5 66 -34 109 l-35 51 20 45
c40 91 34 189 -15 243 -42 47 -94 66 -191 68 -49 2 -109 -2 -132 -7z m200
-177 c37 -33 6 -92 -49 -92 l-34 0 0 53 c0 30 2 56 5 59 9 9 59 -4 78 -20z m2
-265 c20 -29 19 -53 -5 -77 -26 -26 -66 -26 -81 1 -9 18 -6 80 6 100 9 13 66
-5 80 -24z"/>
<path d="M2663 2003 c-22 -4 -23 -8 -23 -126 0 -68 -4 -117 -9 -112 -4 6 -28
57 -52 114 -49 115 -56 121 -143 121 l-53 0 -7 -46 c-3 -26 -6 -178 -6 -339
l0 -292 58 -6 c33 -2 70 -3 83 0 l24 4 -3 127 c-2 70 0 124 4 119 4 -4 31 -60
60 -125 l51 -117 54 -7 c30 -4 64 -4 77 -1 l22 5 0 338 0 337 -37 7 c-40 6
-64 6 -100 -1z"/>
<path d="M6388 2003 c-17 -4 -18 -29 -18 -344 l0 -339 213 2 212 3 3 75 3 75
-43 0 c-24 0 -80 2 -125 3 l-83 2 0 259 0 259 -31 6 c-35 7 -104 6 -131 -1z"/>
<path d="M6978 2003 c-17 -4 -18 -29 -18 -344 l0 -339 213 2 212 3 3 75 3 75
-118 3 c-65 2 -121 6 -125 9 -5 2 -8 118 -8 257 l0 254 -31 6 c-35 7 -104 6
-131 -1z"/>
<path d="M731 1977 c-21 -54 -63 -246 -96 -437 -19 -113 -35 -208 -35 -212 0
-5 36 -8 81 -8 l80 0 13 33 c8 17 17 51 21 75 7 45 30 66 45 41 5 -7 16 -43
25 -80 l17 -66 49 -6 c51 -6 109 0 109 12 0 33 -99 512 -131 634 l-10 37 -80
0 c-74 0 -80 -2 -88 -23z m103 -299 c7 -74 6 -78 -14 -78 -16 0 -19 5 -16 23
3 12 8 48 11 80 4 32 8 57 9 55 2 -1 6 -38 10 -80z"/>
<path d="M1907 1993 c-23 -38 -141 -645 -130 -665 2 -5 40 -8 83 -8 l79 0 11
38 c6 20 14 55 18 77 6 30 13 40 27 40 16 0 24 -15 40 -75 20 -75 20 -75 60
-82 52 -9 115 0 115 17 0 24 -70 377 -103 520 l-32 140 -82 3 c-45 1 -83 -1
-86 -5z m102 -355 c1 -27 -3 -38 -14 -38 -17 0 -18 11 -8 101 l7 64 7 -45 c4
-25 8 -62 8 -82z"/>
<path d="M3117 1993 c-18 -30 -118 -520 -129 -633 l-3 -35 82 -3 82 -3 11 38
c6 21 14 56 18 78 6 30 13 40 27 40 16 0 24 -15 40 -75 20 -75 20 -75 60 -82
52 -9 115 0 115 17 0 24 -70 377 -103 520 l-32 140 -82 3 c-45 1 -83 -1 -86
-5z m102 -355 c1 -27 -3 -38 -14 -38 -17 0 -18 11 -8 101 l7 64 7 -45 c4 -25
8 -62 8 -82z"/>
<path d="M4048 1990 c-83 -25 -112 -64 -129 -171 -12 -80 -5 -287 13 -372 19
-93 84 -141 188 -140 88 0 144 17 184 57 39 40 46 68 46 196 0 93 -1 98 -22
104 -29 7 -147 8 -184 0 -28 -5 -29 -7 -26 -60 l4 -54 34 0 c30 0 34 -3 34
-26 0 -44 -17 -64 -55 -64 -25 0 -37 6 -46 23 -18 32 -22 230 -7 302 12 58 14
60 46 63 30 3 34 0 50 -37 l17 -41 71 0 c69 0 72 1 78 25 10 39 -12 106 -47
143 -50 52 -168 77 -249 52z"/>
<path d="M4669 1993 l-126 -4 -7 -96 c-4 -52 -4 -203 0 -334 l7 -239 207 0
c236 0 220 -7 220 92 l0 47 -127 3 -128 3 0 55 0 55 55 5 55 5 3 74 3 74 -61
-6 -61 -5 3 56 3 57 118 3 c116 3 118 3 127 28 12 30 13 111 2 118 -13 8 -164
13 -293 9z"/>
<path d="M5291 1990 c-90 -22 -161 -112 -161 -203 0 -97 51 -159 156 -188 85
-24 106 -42 102 -88 -3 -33 -6 -36 -36 -39 -27 -3 -35 2 -50 28 l-17 30 -80
-2 -80 -3 -3 -35 c-9 -104 157 -198 297 -169 73 15 133 74 150 147 31 125 -46
231 -195 271 -51 14 -67 31 -58 65 12 47 77 42 90 -8 6 -27 43 -34 129 -28
l47 4 -4 57 c-5 70 -32 111 -91 140 -48 23 -146 34 -196 21z"/>
<path d="M5890 1990 l-125 -5 0 -330 0 -330 210 0 210 0 3 67 3 67 -123 3
-123 3 -3 57 -3 57 58 3 58 3 0 70 0 70 -60 0 c-56 0 -60 2 -63 24 -2 13 -1
39 3 57 l6 34 109 0 c59 0 115 3 124 6 12 5 16 21 16 74 l0 67 -61 7 c-34 3
-74 5 -88 4 -14 -1 -82 -5 -151 -8z"/>
<path d="M2285 1186 c-150 -69 -314 -279 -360 -461 -42 -164 14 -293 156 -364
78 -39 150 -48 222 -27 96 28 220 137 190 167 -7 7 -28 -7 -66 -45 -69 -67
-148 -101 -219 -92 -146 16 -258 130 -258 260 0 81 47 210 109 300 79 114 208
224 290 246 62 16 141 -16 126 -51 -4 -8 -31 -30 -62 -49 -91 -58 -163 -157
-163 -224 0 -38 20 -56 62 -56 37 0 113 54 152 107 37 49 76 139 76 173 0 25
13 32 79 39 40 4 56 10 56 21 0 12 -15 15 -72 15 -59 0 -75 4 -95 21 -37 35
-63 44 -120 44 -34 0 -71 -8 -103 -24z m202 -142 c9 -23 -30 -97 -77 -148 -43
-47 -90 -72 -115 -62 -34 13 35 122 118 188 54 42 65 45 74 22z"/>
<path d="M2689 958 c-38 -32 -82 -143 -130 -328 -33 -128 -35 -137 -45 -232
-9 -85 4 -88 64 -18 72 83 122 96 152 39 43 -79 195 -77 315 4 l40 27 16 -38
c45 -105 222 -103 371 4 26 18 50 34 53 34 3 0 3 -22 -1 -50 -9 -67 6 -66 76
6 30 30 68 63 84 71 29 15 31 15 53 -11 14 -17 23 -40 23 -62 0 -44 25 -56 48
-23 27 41 83 89 102 89 11 0 26 -15 37 -37 52 -100 177 -120 297 -48 l56 34 0
-29 c0 -31 23 -60 47 -60 25 0 76 36 98 69 11 17 24 31 29 31 5 0 24 -16 43
-35 33 -34 84 -55 135 -55 45 0 141 35 201 73 32 20 60 37 62 37 3 0 5 -14 5
-30 0 -35 31 -70 60 -70 29 0 98 37 112 60 7 11 16 20 20 20 13 0 -4 -33 -44
-86 -55 -74 -115 -195 -123 -248 -6 -35 -3 -52 9 -71 49 -75 115 24 173 257
24 98 32 116 68 156 l42 46 57 -18 c71 -23 135 -16 188 19 39 26 51 55 23 55
-9 0 -29 -10 -45 -21 -45 -34 -115 -36 -172 -5 l-47 25 -31 -26 c-34 -28 -40
-26 -55 20 -12 37 -26 39 -40 6 -41 -94 -95 -154 -134 -147 -18 4 -21 67 -6
126 10 41 -9 43 -45 5 -61 -64 -215 -143 -281 -143 -69 0 -130 54 -145 129
-10 48 -36 39 -66 -22 -27 -56 -74 -117 -89 -117 -14 0 -11 58 5 88 19 37 63
76 110 99 42 20 49 36 16 41 -29 5 -93 -36 -170 -108 -141 -131 -262 -144
-327 -35 -42 68 -91 73 -151 14 -29 -28 -32 -29 -38 -13 -26 73 -96 85 -169
29 l-46 -36 6 46 c10 60 -6 60 -82 -5 -69 -59 -163 -108 -225 -116 -34 -5 -57
-1 -91 14 -53 23 -66 52 -48 103 6 18 11 40 11 50 0 27 -29 23 -39 -4 -17 -43
-153 -127 -229 -141 -43 -7 -95 14 -118 50 -40 60 -100 62 -173 7 l-34 -26 6
36 c3 19 28 69 55 109 95 142 152 263 152 327 0 55 -46 88 -81 59z m26 -105
c-30 -104 -123 -281 -125 -236 0 22 62 198 92 257 38 76 58 64 33 -21z m2356
-633 c-31 -100 -71 -184 -84 -171 -16 16 10 98 55 178 23 40 43 71 46 68 2 -2
-5 -36 -17 -75z"/>
<path d="M3117 642 c-27 -17 -33 -42 -11 -49 15 -5 64 35 64 53 0 19 -19 17
-53 -4z"/>
</g>
</svg>
